# xmcd
#
# Track frame offsets: 
#        150
#        16373
#        31656
#        46086
#        60826
#        75606
#        90453
#        104448
#        123586
#        136393
#
# Disc length: 2018 seconds
#
# Revision: 1
# Processed by: cddbd v1.4PL0 Copyright (c) Steve Scherf et al.
# Submitted via: ExactAudioCopy v0.90b3
#
DISCID=6f07e00a
DTITLE=Alabama - Super Hits II
DYEAR=1900
DGENRE=Country
TTITLE0=Close Enough To Perfect
TTITLE1=Fourty Hour Week (For A Livin')
TTITLE2=Song Of The South
TTITLE3=Take A Little Trip
TTITLE4=We Can't Love Like This Anymore
TTITLE5=Born Country
TTITLE6=She Ain't Your Ordinary Girl
TTITLE7=Once Upon A Lifetime
TTITLE8=Here We Are
TTITLE9=Reckless
EXTD=
EXTT0=
EXTT1=
EXTT2=
EXTT3=
EXTT4=
EXTT5=
EXTT6=
EXTT7=
EXTT8=
EXTT9=
PLAYORDER=
